<?xml version="1.0" standalone="no"?>
<!DOCTYPE svg PUBLIC "-//W3C//DTD SVG 20010904//EN"
 "http://www.w3.org/TR/2001/REC-SVG-20010904/DTD/svg10.dtd">
<svg version="1.0" xmlns="http://www.w3.org/2000/svg"
 width="512.000000pt" height="512.000000pt" viewBox="0 0 512.000000 512.000000"
 preserveAspectRatio="xMidYMid meet">
<metadata>
Created by potrace 1.14, written by Peter Selinger 2001-2017
</metadata>
<g transform="translate(0.000000,512.000000) scale(0.100000,-0.100000)"
fill="#000000" stroke="none">
<path d="M870 4945 c-365 -75 -642 -364 -701 -730 -23 -144 3 -371 67 -570 23
-73 791 -1635 804 -1635 3 0 180 350 392 778 258 517 396 805 414 862 63 207
88 428 65 565 -64 380 -349 668 -725 734 -80 15 -236 12 -316 -4z m334 -503
c91 -42 149 -100 194 -190 35 -72 37 -81 37 -172 0 -91 -2 -100 -37 -172 -45
-91 -103 -147 -196 -191 -61 -29 -76 -32 -162 -32 -86 0 -101 3 -162 32 -93
44 -151 100 -196 191 -35 72 -37 81 -37 171 0 87 3 102 32 163 40 85 97 147
172 186 78 42 122 52 213 48 61 -3 92 -11 142 -34z"/>
<path d="M4330 3029 c-343 -38 -596 -354 -559 -697 19 -177 120 -349 265 -448
l56 -39 -406 -3 c-223 -1 -406 -3 -406 -5 0 -1 9 -54 20 -117 11 -63 20 -116
20 -117 0 -2 270 -4 599 -5 l600 -3 11 65 c6 36 13 79 16 95 5 26 12 32 64 49
66 20 175 88 233 144 45 43 118 150 141 206 49 118 61 278 31 397 -80 309
-372 513 -685 478z m-10 -184 c0 -54 24 -103 54 -111 64 -16 106 28 106 111 0
19 1 35 3 35 2 0 28 -7 58 -16 163 -47 291 -185 333 -356 6 -27 5 -28 -29 -28
-83 0 -127 -42 -111 -106 8 -30 57 -54 111 -54 34 0 35 -1 29 -27 -41 -171
-171 -310 -333 -357 -30 -9 -56 -16 -58 -16 -2 0 -3 16 -3 35 0 54 -24 103
-54 111 -64 16 -106 -28 -106 -111 0 -34 -1 -35 -27 -29 -172 42 -310 170
-357 333 -9 30 -16 56 -16 58 0 2 16 3 35 3 54 0 103 24 111 54 16 64 -28 106
-111 106 -19 0 -35 1 -35 3 0 2 7 28 16 58 43 146 167 273 312 320 75 24 72
24 72 -16z"/>
<path d="M960 1747 c-49 -16 -133 -102 -148 -153 -28 -94 -8 -169 63 -239 70
-71 146 -91 237 -63 47 14 119 75 141 119 15 32 16 32 82 30 l66 -2 -20 20
c-14 14 -21 34 -21 61 0 27 7 47 21 61 l20 20 -66 -2 c-66 -2 -67 -2 -82 30
-22 44 -94 105 -141 119 -47 14 -105 14 -152 -1z"/>
<path d="M2470 1571 c17 -33 12 -89 -10 -111 l-20 -20 32 0 c47 0 114 -44 143
-94 20 -33 25 -56 25 -106 0 -80 -31 -138 -93 -174 -40 -23 -51 -24 -267 -29
-275 -5 -309 -14 -406 -111 -75 -75 -104 -143 -104 -246 0 -103 29 -171 104
-246 72 -72 132 -98 250 -109 l79 -8 -22 22 c-28 28 -29 93 -1 121 20 20 20
20 -52 20 -58 0 -79 5 -114 25 -63 37 -94 95 -94 175 0 80 31 138 93 174 40
23 51 24 267 29 275 5 309 14 406 111 75 75 104 143 104 246 0 103 -29 171
-104 246 -62 62 -144 104 -202 104 -21 0 -23 -3 -14 -19z"/>
<path d="M3350 1424 c0 -16 76 -481 85 -521 l5 -23 479 0 479 0 6 28 c10 46
86 510 86 521 0 8 -171 11 -570 11 -512 0 -570 -2 -570 -16z"/>
<path d="M4242 627 c-42 -13 -115 -77 -134 -117 l-15 -31 -241 1 c-191 0 -248
-2 -276 -14 -38 -16 -53 -48 -42 -92 12 -48 51 -55 318 -54 l241 1 15 -31 c34
-70 132 -130 212 -130 124 0 240 116 240 240 0 63 -23 114 -75 165 -69 70
-153 91 -243 62z"/>
<path d="M3260 460 c13 -13 20 -33 20 -60 0 -27 -7 -47 -20 -60 -25 -25 -6
-27 45 -6 61 26 61 106 0 132 -51 21 -70 19 -45 -6z"/>
</g>
</svg>
