<svg xmlns="http://www.w3.org/2000/svg" viewBox="19.440000534057617 37.79999923706055 195.1199951171875 61.130001068115234" fill="#000000" data-color-origin="#000000" data-color-type="fill">
    <path fill="#ec2827" d="M25.42 41.69L49.39 41.69Q49.82 42.41 50.18 43.56Q50.54 44.71 50.54 46.08L50.54 46.08Q50.54 48.46 49.50 49.61Q48.46 50.76 46.58 50.76L46.58 50.76L30.60 50.76L30.60 60.19L46.94 60.19Q47.38 60.98 47.77 62.06Q48.17 63.14 48.17 64.58L48.17 64.58Q48.17 66.96 47.09 68.08Q46.01 69.19 44.21 69.19L44.21 69.19L30.74 69.19L30.74 85.25Q29.95 85.46 28.51 85.64Q27.07 85.82 25.49 85.82L25.49 85.82Q22.10 85.82 20.77 84.67Q19.44 83.52 19.44 80.50L19.44 80.50L19.44 47.66Q19.44 44.93 21.06 43.31Q22.68 41.69 25.42 41.69L25.42 41.69ZM91.66 67.97L91.66 67.97Q91.66 72.22 90.36 75.64Q89.06 79.06 86.65 81.43Q84.24 83.81 80.86 85.10Q77.47 86.40 73.30 86.40L73.30 86.40Q69.12 86.40 65.70 85.14Q62.28 83.88 59.87 81.50Q57.46 79.13 56.16 75.71Q54.86 72.29 54.86 67.97L54.86 67.97Q54.86 63.79 56.20 60.37Q57.53 56.95 59.94 54.58Q62.35 52.20 65.77 50.90Q69.19 49.61 73.30 49.61L73.30 49.61Q77.40 49.61 80.78 50.90Q84.17 52.20 86.58 54.61Q88.99 57.02 90.32 60.41Q91.66 63.79 91.66 67.97ZM73.30 58.25L73.30 58.25Q69.91 58.25 68.04 60.77Q66.17 63.29 66.17 67.97L66.17 67.97Q66.17 72.79 68.00 75.28Q69.84 77.76 73.30 77.76L73.30 77.76Q76.75 77.76 78.59 75.24Q80.42 72.72 80.42 67.97L80.42 67.97Q80.42 63.36 78.55 60.80Q76.68 58.25 73.30 58.25ZM133.42 67.97L133.42 67.97Q133.42 72.22 132.12 75.64Q130.82 79.06 128.41 81.43Q126.00 83.81 122.62 85.10Q119.23 86.40 115.06 86.40L115.06 86.40Q110.88 86.40 107.46 85.14Q104.04 83.88 101.63 81.50Q99.22 79.13 97.92 75.71Q96.62 72.29 96.62 67.97L96.62 67.97Q96.62 63.79 97.96 60.37Q99.29 56.95 101.70 54.58Q104.11 52.20 107.53 50.90Q110.95 49.61 115.06 49.61L115.06 49.61Q119.16 49.61 122.54 50.90Q125.93 52.20 128.34 54.61Q130.75 57.02 132.08 60.41Q133.42 63.79 133.42 67.97ZM115.06 58.25L115.06 58.25Q111.67 58.25 109.80 60.77Q107.93 63.29 107.93 67.97L107.93 67.97Q107.93 72.79 109.76 75.28Q111.60 77.76 115.06 77.76L115.06 77.76Q118.51 77.76 120.35 75.24Q122.18 72.72 122.18 67.97L122.18 67.97Q122.18 63.36 120.31 60.80Q118.44 58.25 115.06 58.25ZM156.53 49.61L156.53 49.61Q158.18 49.61 159.66 49.86Q161.14 50.11 162.36 50.54L162.36 50.54L162.36 38.45Q163.15 38.23 164.45 38.02Q165.74 37.80 167.33 37.80L167.33 37.80Q170.57 37.80 171.97 38.88Q173.38 39.96 173.38 42.98L173.38 42.98L173.38 78.05Q173.38 79.78 172.66 80.96Q171.94 82.15 170.35 83.16L170.35 83.16Q168.34 84.38 165.17 85.39Q162.00 86.40 157.90 86.40L157.90 86.40Q148.82 86.40 143.60 81.83Q138.38 77.26 138.38 68.11L138.38 68.11Q138.38 63.36 139.79 59.90Q141.19 56.45 143.64 54.14Q146.09 51.84 149.40 50.72Q152.71 49.61 156.53 49.61ZM162.43 76.61L162.43 59.33Q161.50 58.90 160.38 58.57Q159.26 58.25 158.04 58.25L158.04 58.25Q154.15 58.25 151.85 60.62Q149.54 63 149.54 68.18L149.54 68.18Q149.54 73.15 151.74 75.42Q153.94 77.69 157.82 77.69L157.82 77.69Q159.34 77.69 160.52 77.36Q161.71 77.04 162.43 76.61L162.43 76.61ZM187.42 76.68L187.42 76.68Q185.76 73.08 183.64 67.28Q181.51 61.49 179.21 52.27L179.21 52.27Q180.07 51.34 181.62 50.65Q183.17 49.97 184.97 49.97L184.97 49.97Q187.27 49.97 188.71 50.94Q190.15 51.91 190.94 54.50L190.94 54.50Q192.53 59.76 194.15 64.87Q195.77 69.98 197.42 75.17L197.42 75.17L197.71 75.17Q198.58 72.72 199.51 69.80Q200.45 66.89 201.31 63.76Q202.18 60.62 202.93 57.42Q203.69 54.22 204.26 51.19L204.26 51.19Q206.50 49.97 208.94 49.97L208.94 49.97Q211.25 49.97 212.90 50.98Q214.56 51.98 214.56 54.29L214.56 54.29Q214.56 56.88 213.66 60.88Q212.76 64.87 211.28 69.23Q209.81 73.58 207.97 77.87Q206.14 82.15 204.19 85.39L204.19 85.39Q200.16 92.23 196.92 95.58Q193.68 98.93 190.37 98.93L190.37 98.93Q187.70 98.93 185.98 97.31Q184.25 95.69 183.89 93.17L183.89 93.17Q186.19 91.15 188.68 88.45Q191.16 85.75 192.89 83.02L192.89 83.02Q191.66 82.66 190.33 81.40Q189.00 80.14 187.42 76.68Z" class=" bl-fill-0" data-color-origin="#ec2827" data-color-type="fill"/>
</svg>